<mxfile host="65bd71144e">
    <diagram id="Zkz04jz5YsL4YU95k7QZ" name="Page-1">
        <mxGraphModel dx="425" dy="361" grid="1" gridSize="10" guides="1" tooltips="1" connect="1" arrows="1" fold="1" page="1" pageScale="1" pageWidth="827" pageHeight="1169" math="0" shadow="0">
            <root>
                <mxCell id="0"/>
                <mxCell id="1" parent="0"/>
                <mxCell id="37" value="" style="group" vertex="1" connectable="0" parent="1">
                    <mxGeometry x="44" y="480" width="740" height="360" as="geometry"/>
                </mxCell>
                <mxCell id="34" value="" style="rounded=0;whiteSpace=wrap;html=1;" vertex="1" parent="37">
                    <mxGeometry width="740" height="360" as="geometry"/>
                </mxCell>
                <mxCell id="19" value="" style="rounded=1;whiteSpace=wrap;html=1;" vertex="1" parent="37">
                    <mxGeometry x="60" y="125" width="610" height="100" as="geometry"/>
                </mxCell>
                <mxCell id="17" value="" style="ellipse;whiteSpace=wrap;html=1;aspect=fixed;fillColor=#f8cecc;strokeColor=#b85450;" vertex="1" parent="37">
                    <mxGeometry x="80" y="135" width="80" height="80" as="geometry"/>
                </mxCell>
                <mxCell id="20" value="&lt;b&gt;HEAD&lt;/b&gt;" style="shape=singleArrow;direction=south;whiteSpace=wrap;html=1;" vertex="1" parent="37">
                    <mxGeometry x="80" y="25" width="60" height="100" as="geometry"/>
                </mxCell>
                <mxCell id="21" value="&lt;b style=&quot;border-color: var(--border-color);&quot;&gt;TAIL&lt;/b&gt;" style="shape=singleArrow;direction=north;whiteSpace=wrap;html=1;" vertex="1" parent="37">
                    <mxGeometry x="200" y="240" width="60" height="100" as="geometry"/>
                </mxCell>
                <mxCell id="22" value="" style="ellipse;whiteSpace=wrap;html=1;aspect=fixed;" vertex="1" parent="37">
                    <mxGeometry x="190" y="135" width="80" height="80" as="geometry"/>
                </mxCell>
                <mxCell id="23" value="&lt;b&gt;HEAD&lt;/b&gt;" style="shape=singleArrow;direction=south;whiteSpace=wrap;html=1;rotation=-45;fillColor=#f8cecc;strokeColor=#b85450;" vertex="1" parent="37">
                    <mxGeometry x="160" y="25" width="60" height="100" as="geometry"/>
                </mxCell>
                <mxCell id="24" value="next&lt;br&gt;" style="endArrow=classic;html=1;exitX=1;exitY=0;exitDx=0;exitDy=0;entryX=0;entryY=0;entryDx=0;entryDy=0;" edge="1" parent="37" source="17" target="22">
                    <mxGeometry relative="1" as="geometry">
                        <mxPoint x="460" y="220" as="sourcePoint"/>
                        <mxPoint x="560" y="220" as="targetPoint"/>
                        <Array as="points">
                            <mxPoint x="170" y="147"/>
                            <mxPoint x="190" y="147"/>
                        </Array>
                    </mxGeometry>
                </mxCell>
                <mxCell id="25" value="Next&lt;br&gt;" style="edgeLabel;resizable=0;html=1;align=center;verticalAlign=middle;" connectable="0" vertex="1" parent="24">
                    <mxGeometry relative="1" as="geometry"/>
                </mxCell>
                <mxCell id="28" value="" style="endArrow=classic;html=1;entryX=0.975;entryY=0.615;entryDx=0;entryDy=0;entryPerimeter=0;" edge="1" parent="37" target="17">
                    <mxGeometry width="50" height="50" relative="1" as="geometry">
                        <mxPoint x="190" y="184" as="sourcePoint"/>
                        <mxPoint x="390" y="120" as="targetPoint"/>
                        <Array as="points">
                            <mxPoint x="180" y="184"/>
                        </Array>
                    </mxGeometry>
                </mxCell>
                <mxCell id="32" value="&lt;span style=&quot;background-color: rgb(255, 204, 204);&quot;&gt;prev&lt;/span&gt;" style="edgeLabel;resizable=0;html=1;align=center;verticalAlign=middle;" connectable="0" vertex="1" parent="37">
                    <mxGeometry x="179.9990773576306" y="190" as="geometry">
                        <mxPoint x="-11" y="11" as="offset"/>
                    </mxGeometry>
                </mxCell>
                <mxCell id="35" value="POP" style="text;html=1;strokeColor=none;fillColor=none;align=center;verticalAlign=middle;whiteSpace=wrap;rounded=0;" vertex="1" parent="37">
                    <mxGeometry x="370" width="60" height="30" as="geometry"/>
                </mxCell>
                <mxCell id="38" value="" style="group" vertex="1" connectable="0" parent="1">
                    <mxGeometry x="80" y="70" width="640" height="360" as="geometry"/>
                </mxCell>
                <mxCell id="15" value="" style="rounded=0;whiteSpace=wrap;html=1;" vertex="1" parent="38">
                    <mxGeometry width="640" height="360" as="geometry"/>
                </mxCell>
                <mxCell id="2" value="" style="ellipse;whiteSpace=wrap;html=1;aspect=fixed;" parent="38" vertex="1">
                    <mxGeometry x="210" y="130" width="80" height="80" as="geometry"/>
                </mxCell>
                <mxCell id="3" value="" style="ellipse;whiteSpace=wrap;html=1;aspect=fixed;" parent="38" vertex="1">
                    <mxGeometry x="440" y="130" width="80" height="80" as="geometry"/>
                </mxCell>
                <mxCell id="4" value="" style="ellipse;whiteSpace=wrap;html=1;aspect=fixed;" parent="38" vertex="1">
                    <mxGeometry x="320" y="130" width="80" height="80" as="geometry"/>
                </mxCell>
                <mxCell id="5" value="&lt;b&gt;HEAD&lt;/b&gt;" style="shape=singleArrow;direction=south;whiteSpace=wrap;html=1;" parent="38" vertex="1">
                    <mxGeometry x="220" y="30" width="60" height="100" as="geometry"/>
                </mxCell>
                <mxCell id="6" value="&lt;b&gt;TAIL&lt;/b&gt;" style="shape=singleArrow;direction=north;whiteSpace=wrap;html=1;" parent="38" vertex="1">
                    <mxGeometry x="220" y="230" width="60" height="100" as="geometry"/>
                </mxCell>
                <mxCell id="7" value="New Node" style="ellipse;whiteSpace=wrap;html=1;aspect=fixed;" parent="38" vertex="1">
                    <mxGeometry x="80" y="120" width="80" height="80" as="geometry"/>
                </mxCell>
                <mxCell id="8" value="" style="endArrow=classic;html=1;exitX=1.004;exitY=0.369;exitDx=0;exitDy=0;exitPerimeter=0;entryX=0;entryY=0;entryDx=0;entryDy=0;fillColor=#f8cecc;strokeColor=#b85450;" parent="38" source="7" target="2" edge="1">
                    <mxGeometry width="50" height="50" relative="1" as="geometry">
                        <mxPoint x="350" y="300" as="sourcePoint"/>
                        <mxPoint x="400" y="250" as="targetPoint"/>
                    </mxGeometry>
                </mxCell>
                <mxCell id="9" value="NEXT" style="edgeLabel;html=1;align=center;verticalAlign=middle;resizable=0;points=[];" parent="8" vertex="1" connectable="0">
                    <mxGeometry x="-0.4689" relative="1" as="geometry">
                        <mxPoint as="offset"/>
                    </mxGeometry>
                </mxCell>
                <mxCell id="10" value="&lt;span&gt;HEAD&lt;/span&gt;" style="shape=singleArrow;direction=south;whiteSpace=wrap;html=1;fontStyle=1;fillColor=#f8cecc;strokeColor=#b85450;" parent="38" vertex="1">
                    <mxGeometry x="90" y="20" width="60" height="100" as="geometry"/>
                </mxCell>
                <mxCell id="11" value="" style="endArrow=classic;html=1;exitX=0.036;exitY=0.713;exitDx=0;exitDy=0;exitPerimeter=0;entryX=1;entryY=1;entryDx=0;entryDy=0;" parent="38" source="2" target="7" edge="1">
                    <mxGeometry width="50" height="50" relative="1" as="geometry">
                        <mxPoint x="170.31999999999994" y="159.51999999999998" as="sourcePoint"/>
                        <mxPoint x="231.71572875253787" y="151.71572875253787" as="targetPoint"/>
                        <Array as="points">
                            <mxPoint x="190" y="188"/>
                        </Array>
                    </mxGeometry>
                </mxCell>
                <mxCell id="12" value="PREV = NONE" style="edgeLabel;html=1;align=center;verticalAlign=middle;resizable=0;points=[];" parent="11" vertex="1" connectable="0">
                    <mxGeometry x="-0.4689" relative="1" as="geometry">
                        <mxPoint as="offset"/>
                    </mxGeometry>
                </mxCell>
                <mxCell id="13" value="&lt;font color=&quot;#ffcccc&quot;&gt;PREV = new node&lt;/font&gt;" style="edgeLabel;html=1;align=center;verticalAlign=middle;resizable=0;points=[];" parent="38" vertex="1" connectable="0">
                    <mxGeometry x="205.8949443279521" y="197.7526596785475" as="geometry">
                        <mxPoint x="-11" y="22" as="offset"/>
                    </mxGeometry>
                </mxCell>
                <mxCell id="16" value="Prepend" style="text;html=1;strokeColor=none;fillColor=none;align=center;verticalAlign=middle;whiteSpace=wrap;rounded=0;" vertex="1" parent="38">
                    <mxGeometry x="440" y="10" width="60" height="30" as="geometry"/>
                </mxCell>
                <mxCell id="39" value="" style="rounded=1;whiteSpace=wrap;html=1;" vertex="1" parent="1">
                    <mxGeometry x="70" y="990" width="610" height="100" as="geometry"/>
                </mxCell>
                <mxCell id="53" value="" style="ellipse;whiteSpace=wrap;html=1;aspect=fixed;fillColor=#f8cecc;strokeColor=#b85450;" vertex="1" parent="1">
                    <mxGeometry x="90" y="1000" width="80" height="80" as="geometry"/>
                </mxCell>
                <mxCell id="61" value="" style="group" vertex="1" connectable="0" parent="1">
                    <mxGeometry x="170" y="1000" width="122.07999999999998" height="80" as="geometry"/>
                </mxCell>
                <mxCell id="54" value="Node" style="ellipse;whiteSpace=wrap;html=1;aspect=fixed;" vertex="1" parent="61">
                    <mxGeometry x="42.079999999999984" width="80" height="80" as="geometry"/>
                </mxCell>
                <mxCell id="57" value="pr" style="endArrow=classic;html=1;exitX=0.04;exitY=0.33;exitDx=0;exitDy=0;exitPerimeter=0;" edge="1" parent="61" source="54">
                    <mxGeometry relative="1" as="geometry">
                        <mxPoint x="42.079999999999984" y="26" as="sourcePoint"/>
                        <mxPoint x="2.079999999999984" y="26" as="targetPoint"/>
                        <Array as="points">
                            <mxPoint x="2.079999999999984" y="26"/>
                        </Array>
                    </mxGeometry>
                </mxCell>
                <mxCell id="58" value="prev" style="edgeLabel;resizable=0;html=1;align=center;verticalAlign=middle;labelBackgroundColor=#FFFFFF;" connectable="0" vertex="1" parent="57">
                    <mxGeometry relative="1" as="geometry"/>
                </mxCell>
                <mxCell id="59" value="next" style="endArrow=classic;html=1;entryX=0.02;entryY=0.633;entryDx=0;entryDy=0;entryPerimeter=0;" edge="1" parent="61" target="54">
                    <mxGeometry relative="1" as="geometry">
                        <mxPoint x="0.07999999999998408" y="50" as="sourcePoint"/>
                        <mxPoint x="42.08000000000004" y="50.239999999999895" as="targetPoint"/>
                        <Array as="points">
                            <mxPoint y="50"/>
                        </Array>
                    </mxGeometry>
                </mxCell>
                <mxCell id="70" value="" style="group" vertex="1" connectable="0" parent="1">
                    <mxGeometry x="291" y="1000" width="122.07999999999998" height="80" as="geometry"/>
                </mxCell>
                <mxCell id="71" value="Node" style="ellipse;whiteSpace=wrap;html=1;aspect=fixed;" vertex="1" parent="70">
                    <mxGeometry x="42.079999999999984" width="80" height="80" as="geometry"/>
                </mxCell>
                <mxCell id="72" value="pr" style="endArrow=classic;html=1;exitX=0.04;exitY=0.33;exitDx=0;exitDy=0;exitPerimeter=0;" edge="1" parent="70" source="71">
                    <mxGeometry relative="1" as="geometry">
                        <mxPoint x="42.079999999999984" y="26" as="sourcePoint"/>
                        <mxPoint x="2.079999999999984" y="26" as="targetPoint"/>
                        <Array as="points">
                            <mxPoint x="2.079999999999984" y="26"/>
                        </Array>
                    </mxGeometry>
                </mxCell>
                <mxCell id="73" value="prev" style="edgeLabel;resizable=0;html=1;align=center;verticalAlign=middle;labelBackgroundColor=#FFFFFF;" connectable="0" vertex="1" parent="72">
                    <mxGeometry relative="1" as="geometry"/>
                </mxCell>
                <mxCell id="74" value="next" style="endArrow=classic;html=1;entryX=0.02;entryY=0.633;entryDx=0;entryDy=0;entryPerimeter=0;" edge="1" parent="70" target="71">
                    <mxGeometry relative="1" as="geometry">
                        <mxPoint x="0.07999999999998408" y="50" as="sourcePoint"/>
                        <mxPoint x="42.08000000000004" y="50.239999999999895" as="targetPoint"/>
                        <Array as="points">
                            <mxPoint y="50"/>
                        </Array>
                    </mxGeometry>
                </mxCell>
                <mxCell id="75" value="" style="group" vertex="1" connectable="0" parent="1">
                    <mxGeometry x="414" y="1000" width="122.07999999999998" height="80" as="geometry"/>
                </mxCell>
                <mxCell id="76" value="Node" style="ellipse;whiteSpace=wrap;html=1;aspect=fixed;" vertex="1" parent="75">
                    <mxGeometry x="42.079999999999984" width="80" height="80" as="geometry"/>
                </mxCell>
                <mxCell id="77" value="pr" style="endArrow=classic;html=1;exitX=0.04;exitY=0.33;exitDx=0;exitDy=0;exitPerimeter=0;" edge="1" parent="75" source="76">
                    <mxGeometry relative="1" as="geometry">
                        <mxPoint x="42.079999999999984" y="26" as="sourcePoint"/>
                        <mxPoint x="2.079999999999984" y="26" as="targetPoint"/>
                        <Array as="points">
                            <mxPoint x="2.079999999999984" y="26"/>
                        </Array>
                    </mxGeometry>
                </mxCell>
                <mxCell id="78" value="prev" style="edgeLabel;resizable=0;html=1;align=center;verticalAlign=middle;labelBackgroundColor=#FFFFFF;" connectable="0" vertex="1" parent="77">
                    <mxGeometry relative="1" as="geometry"/>
                </mxCell>
                <mxCell id="79" value="next" style="endArrow=classic;html=1;entryX=0.02;entryY=0.633;entryDx=0;entryDy=0;entryPerimeter=0;" edge="1" parent="75" target="76">
                    <mxGeometry relative="1" as="geometry">
                        <mxPoint x="0.07999999999998408" y="50" as="sourcePoint"/>
                        <mxPoint x="42.08000000000004" y="50.239999999999895" as="targetPoint"/>
                        <Array as="points">
                            <mxPoint y="50"/>
                        </Array>
                    </mxGeometry>
                </mxCell>
                <mxCell id="80" value="" style="group" vertex="1" connectable="0" parent="1">
                    <mxGeometry x="530" y="1000" width="122.07999999999998" height="80" as="geometry"/>
                </mxCell>
                <mxCell id="81" value="Node" style="ellipse;whiteSpace=wrap;html=1;aspect=fixed;" vertex="1" parent="80">
                    <mxGeometry x="42.079999999999984" width="80" height="80" as="geometry"/>
                </mxCell>
                <mxCell id="82" value="pr" style="endArrow=classic;html=1;exitX=0.04;exitY=0.33;exitDx=0;exitDy=0;exitPerimeter=0;" edge="1" parent="80" source="81">
                    <mxGeometry relative="1" as="geometry">
                        <mxPoint x="42.079999999999984" y="26" as="sourcePoint"/>
                        <mxPoint x="2.079999999999984" y="26" as="targetPoint"/>
                        <Array as="points">
                            <mxPoint x="2.079999999999984" y="26"/>
                        </Array>
                    </mxGeometry>
                </mxCell>
                <mxCell id="83" value="prev" style="edgeLabel;resizable=0;html=1;align=center;verticalAlign=middle;labelBackgroundColor=#FFFFFF;" connectable="0" vertex="1" parent="82">
                    <mxGeometry relative="1" as="geometry"/>
                </mxCell>
                <mxCell id="84" value="next" style="endArrow=classic;html=1;entryX=0.02;entryY=0.633;entryDx=0;entryDy=0;entryPerimeter=0;" edge="1" parent="80" target="81">
                    <mxGeometry relative="1" as="geometry">
                        <mxPoint x="0.07999999999998408" y="50" as="sourcePoint"/>
                        <mxPoint x="42.08000000000004" y="50.239999999999895" as="targetPoint"/>
                        <Array as="points">
                            <mxPoint y="50"/>
                        </Array>
                    </mxGeometry>
                </mxCell>
                <mxCell id="98" value="&lt;b style=&quot;border-color: var(--border-color);&quot;&gt;TAIL&lt;/b&gt;" style="shape=singleArrow;direction=north;whiteSpace=wrap;html=1;" vertex="1" parent="1">
                    <mxGeometry x="592.0799999999999" y="1090" width="60" height="100" as="geometry"/>
                </mxCell>
                <mxCell id="99" value="&lt;b style=&quot;border-color: var(--border-color);&quot;&gt;Head&lt;/b&gt;" style="shape=singleArrow;direction=south;whiteSpace=wrap;html=1;" vertex="1" parent="1">
                    <mxGeometry x="89.99999999999989" y="890" width="60" height="100" as="geometry"/>
                </mxCell>
                <mxCell id="100" value="" style="rounded=1;whiteSpace=wrap;html=1;" vertex="1" parent="1">
                    <mxGeometry x="60" y="1370" width="610" height="100" as="geometry"/>
                </mxCell>
                <mxCell id="101" value="" style="ellipse;whiteSpace=wrap;html=1;aspect=fixed;fillColor=#f8cecc;strokeColor=#b85450;" vertex="1" parent="1">
                    <mxGeometry x="80" y="1380" width="80" height="80" as="geometry"/>
                </mxCell>
                <mxCell id="102" value="" style="group" vertex="1" connectable="0" parent="1">
                    <mxGeometry x="160" y="1380" width="122.07999999999998" height="80" as="geometry"/>
                </mxCell>
                <mxCell id="103" value="Node" style="ellipse;whiteSpace=wrap;html=1;aspect=fixed;" vertex="1" parent="102">
                    <mxGeometry x="42.079999999999984" width="80" height="80" as="geometry"/>
                </mxCell>
                <mxCell id="104" value="pr" style="endArrow=classic;html=1;exitX=0.04;exitY=0.33;exitDx=0;exitDy=0;exitPerimeter=0;" edge="1" parent="102" source="103">
                    <mxGeometry relative="1" as="geometry">
                        <mxPoint x="42.079999999999984" y="26" as="sourcePoint"/>
                        <mxPoint x="2.079999999999984" y="26" as="targetPoint"/>
                        <Array as="points">
                            <mxPoint x="2.079999999999984" y="26"/>
                        </Array>
                    </mxGeometry>
                </mxCell>
                <mxCell id="105" value="prev" style="edgeLabel;resizable=0;html=1;align=center;verticalAlign=middle;labelBackgroundColor=#FFFFFF;" connectable="0" vertex="1" parent="104">
                    <mxGeometry relative="1" as="geometry"/>
                </mxCell>
                <mxCell id="106" value="next" style="endArrow=classic;html=1;entryX=0.02;entryY=0.633;entryDx=0;entryDy=0;entryPerimeter=0;" edge="1" parent="102" target="103">
                    <mxGeometry relative="1" as="geometry">
                        <mxPoint x="0.07999999999998408" y="50" as="sourcePoint"/>
                        <mxPoint x="42.08000000000004" y="50.239999999999895" as="targetPoint"/>
                        <Array as="points">
                            <mxPoint y="50"/>
                        </Array>
                    </mxGeometry>
                </mxCell>
                <mxCell id="117" value="" style="group" vertex="1" connectable="0" parent="1">
                    <mxGeometry x="520" y="1380" width="122.07999999999998" height="80" as="geometry"/>
                </mxCell>
                <mxCell id="118" value="Node" style="ellipse;whiteSpace=wrap;html=1;aspect=fixed;" vertex="1" parent="117">
                    <mxGeometry x="42.079999999999984" width="80" height="80" as="geometry"/>
                </mxCell>
                <mxCell id="119" value="pr" style="endArrow=classic;html=1;exitX=0.04;exitY=0.33;exitDx=0;exitDy=0;exitPerimeter=0;" edge="1" parent="117" source="118">
                    <mxGeometry relative="1" as="geometry">
                        <mxPoint x="42.079999999999984" y="26" as="sourcePoint"/>
                        <mxPoint x="2.079999999999984" y="26" as="targetPoint"/>
                        <Array as="points">
                            <mxPoint x="2.079999999999984" y="26"/>
                        </Array>
                    </mxGeometry>
                </mxCell>
                <mxCell id="120" value="prev" style="edgeLabel;resizable=0;html=1;align=center;verticalAlign=middle;labelBackgroundColor=#FFFFFF;" connectable="0" vertex="1" parent="119">
                    <mxGeometry relative="1" as="geometry"/>
                </mxCell>
                <mxCell id="121" value="next" style="endArrow=classic;html=1;entryX=0.02;entryY=0.633;entryDx=0;entryDy=0;entryPerimeter=0;" edge="1" parent="117" target="118">
                    <mxGeometry relative="1" as="geometry">
                        <mxPoint x="0.07999999999998408" y="50" as="sourcePoint"/>
                        <mxPoint x="42.08000000000004" y="50.239999999999895" as="targetPoint"/>
                        <Array as="points">
                            <mxPoint y="50"/>
                        </Array>
                    </mxGeometry>
                </mxCell>
                <mxCell id="122" value="&lt;b style=&quot;border-color: var(--border-color);&quot;&gt;TAIL&lt;/b&gt;" style="shape=singleArrow;direction=north;whiteSpace=wrap;html=1;" vertex="1" parent="1">
                    <mxGeometry x="582.0799999999999" y="1470" width="60" height="100" as="geometry"/>
                </mxCell>
                <mxCell id="123" value="&lt;b style=&quot;border-color: var(--border-color);&quot;&gt;Head&lt;/b&gt;" style="shape=singleArrow;direction=south;whiteSpace=wrap;html=1;" vertex="1" parent="1">
                    <mxGeometry x="79.99999999999989" y="1270" width="60" height="100" as="geometry"/>
                </mxCell>
                <mxCell id="108" value="Node" style="ellipse;whiteSpace=wrap;html=1;aspect=fixed;" vertex="1" parent="1">
                    <mxGeometry x="310" y="1270" width="80" height="80" as="geometry"/>
                </mxCell>
                <mxCell id="109" value="pr" style="endArrow=classic;html=1;exitX=0.04;exitY=0.33;exitDx=0;exitDy=0;exitPerimeter=0;entryX=1;entryY=0;entryDx=0;entryDy=0;" edge="1" parent="1" source="108" target="103">
                    <mxGeometry relative="1" as="geometry">
                        <mxPoint x="323.08" y="1406" as="sourcePoint"/>
                        <mxPoint x="283.08" y="1406" as="targetPoint"/>
                        <Array as="points"/>
                    </mxGeometry>
                </mxCell>
                <mxCell id="110" value="prev" style="edgeLabel;resizable=0;html=1;align=center;verticalAlign=middle;labelBackgroundColor=#FFFFFF;" connectable="0" vertex="1" parent="109">
                    <mxGeometry relative="1" as="geometry"/>
                </mxCell>
                <mxCell id="111" value="next" style="endArrow=classic;html=1;" edge="1" parent="1" target="108">
                    <mxGeometry relative="1" as="geometry">
                        <mxPoint x="281.08" y="1430" as="sourcePoint"/>
                        <mxPoint x="314" y="1332" as="targetPoint"/>
                        <Array as="points">
                            <mxPoint x="281" y="1430"/>
                        </Array>
                    </mxGeometry>
                </mxCell>
                <mxCell id="113" value="Node" style="ellipse;whiteSpace=wrap;html=1;aspect=fixed;" vertex="1" parent="1">
                    <mxGeometry x="446.08" y="1380" width="80" height="80" as="geometry"/>
                </mxCell>
                <mxCell id="114" value="pr" style="endArrow=classic;html=1;exitX=0.04;exitY=0.33;exitDx=0;exitDy=0;exitPerimeter=0;" edge="1" parent="1" source="113">
                    <mxGeometry relative="1" as="geometry">
                        <mxPoint x="446.08" y="1406" as="sourcePoint"/>
                        <mxPoint x="390" y="1320" as="targetPoint"/>
                        <Array as="points">
                            <mxPoint x="406.08" y="1406"/>
                            <mxPoint x="390" y="1320"/>
                        </Array>
                    </mxGeometry>
                </mxCell>
                <mxCell id="115" value="prev" style="edgeLabel;resizable=0;html=1;align=center;verticalAlign=middle;labelBackgroundColor=#FFFFFF;" connectable="0" vertex="1" parent="114">
                    <mxGeometry relative="1" as="geometry"/>
                </mxCell>
                <mxCell id="116" value="next" style="endArrow=classic;html=1;entryX=0.02;entryY=0.633;entryDx=0;entryDy=0;entryPerimeter=0;" edge="1" parent="1" target="113">
                    <mxGeometry x="-0.2652" relative="1" as="geometry">
                        <mxPoint x="404.08" y="1430" as="sourcePoint"/>
                        <mxPoint x="446.08000000000004" y="1430.2399999999998" as="targetPoint"/>
                        <Array as="points">
                            <mxPoint x="360" y="1350"/>
                            <mxPoint x="404" y="1430"/>
                        </Array>
                        <mxPoint as="offset"/>
                    </mxGeometry>
                </mxCell>
            </root>
        </mxGraphModel>
    </diagram>
</mxfile>